<?xml version="1.0" encoding="utf-8"?>
<svg version="1.1" xmlns:xlink="http://www.w3.org/1999/xlink" width="17px" height="17px" xmlns="http://www.w3.org/2000/svg">
  <g transform="matrix(1 0 0 1 -808 -58 )">
    <path d="M 7.88130530973451 5.67039473684211  C 7.88130530973451 6.85219298245614  6.91095132743363 7.8140350877193  5.71681415929204 7.8140350877193  L 2.29424778761062 7.8140350877193  C 1.10199115044248 7.8140350877193  0.131637168141593 6.85219298245614  0.131637168141593 5.67039473684211  L 0.131637168141593 2.27785087719298  C 0.131637168141593 1.09418859649123  1.10199115044248 0.13234649122807  2.29424778761062 0.13234649122807  L 5.71681415929204 0.13234649122807  C 6.90907079646018 0.13234649122807  7.88130530973451 1.09418859649123  7.88130530973451 2.27785087719298  L 7.88130530973451 5.67039473684211  Z M 5.71681415929204 1.06436403508772  L 2.29424778761062 1.06436403508772  C 1.61913716814159 1.06436403508772  1.07002212389381 1.60866228070175  1.07002212389381 2.27785087719298  L 1.07002212389381 5.67039473684211  C 1.07002212389381 6.33958333333333  1.61913716814159 6.88388157894737  2.29424778761062 6.88388157894737  L 5.71681415929204 6.88388157894737  C 6.39192477876106 6.88388157894737  6.94103982300885 6.33958333333333  6.94103982300885 5.6703947368421  L 6.94103982300885 2.27785087719298  C 6.94103982300885 1.60866228070175  6.39192477876106 1.06436403508772  5.71681415929204 1.06436403508772  Z M 16.9059734513274 5.53059210526316  C 16.9059734513274 6.68815789473684  15.9563053097345 7.62949561403509  14.7884955752212 7.62949561403509  L 11.4599557522124 7.62949561403509  C 10.2921460176991 7.62949561403509  9.34247787610619 6.68815789473684  9.34247787610619 5.53059210526316  L 9.34247787610619 2.23125  C 9.34247787610619 1.07368421052632  10.2921460176991 0.132346491228071  11.4599557522124 0.132346491228071  L 14.7884955752212 0.132346491228071  C 15.9563053097345 0.132346491228071  16.9059734513274 1.07368421052632  16.9059734513274 2.23125  L 16.9059734513274 5.53059210526316  Z M 14.7884955752212 1.06436403508772  L 11.4599557522124 1.06436403508772  C 10.8111725663717 1.06436403508772  10.2827433628319 1.58815789473684  10.2827433628319 2.23125  L 10.2827433628319 5.53059210526316  C 10.2827433628319 6.17368421052632  10.8111725663717 6.69747807017544  11.4599557522124 6.69747807017544  L 14.7884955752212 6.69747807017544  C 15.4372787610619 6.69747807017544  15.9657079646018 6.17368421052632  15.9657079646018 5.53059210526316  L 15.9657079646018 2.23125  C 15.9657079646018 1.58815789473684  15.4372787610619 1.06436403508772  14.7884955752212 1.06436403508772  Z M 7.83053097345133 14.7594298245614  C 7.83241150442478 15.9356359649123  6.8658185840708 16.8918859649123  5.67920353982301 16.8918859649123  L 2.28296460176991 16.8918859649123  C 1.09634955752212 16.8918859649123  0.131637168141593 15.9356359649123  0.131637168141593 14.7594298245614  L 0.131637168141593 11.3911184210526  C 0.131637168141593 10.2149122807018  1.09634955752212 9.25866228070176  2.28296460176991 9.25866228070176  L 5.67920353982301 9.25866228070176  C 6.8658185840708 9.25866228070176  7.83053097345133 10.2149122807018  7.83053097345133 11.3911184210526  L 7.83053097345133 14.7594298245614  Z M 5.67920353982301 10.1906798245614  L 2.28296460176991 10.1906798245614  C 1.61537610619469 10.1906798245614  1.07190265486726 10.7293859649123  1.07190265486726 11.3911184210526  L 1.07190265486726 14.7594298245614  C 1.07190265486726 15.4211622807018  1.61537610619469 15.9598684210526  2.28296460176991 15.9598684210526  L 5.67920353982301 15.9598684210526  C 6.34679203539823 15.9598684210526  6.89026548672566 15.4211622807018  6.89026548672566 14.7594298245614  L 6.89026548672566 11.3911184210526  C 6.89026548672566 10.7293859649123  6.34679203539823 10.1906798245614  5.67920353982301 10.1906798245614  Z M 16.9078539823009 14.7631578947368  C 16.9059734513274 15.9375  15.9412610619469 16.8918859649123  14.7565265486726 16.8918859649123  L 11.3659292035398 16.8918859649123  C 10.1811946902655 16.8918859649123  9.21648230088496 15.9356359649123  9.21648230088496 14.7612938596491  L 9.21648230088496 11.4004385964912  C 9.21648230088496 10.2260964912281  10.1811946902655 9.26984649122807  11.3659292035398 9.26984649122807  L 14.758407079646 9.26984649122807  C 15.9431415929204 9.26984649122807  16.9078539823009 10.2260964912281  16.9078539823009 11.4004385964912  L 16.9078539823009 14.7631578947368  Z M 14.758407079646 10.2018640350877  L 11.3659292035398 10.2018640350877  C 10.7002212389381 10.2018640350877  10.1567477876106 10.7387061403509  10.1567477876106 11.4004385964912  L 10.1567477876106 14.7631578947368  C 10.1567477876106 15.4230263157895  10.6983407079646 15.9617324561404  11.3659292035398 15.9617324561404  L 14.758407079646 15.9617324561404  C 15.4241150442478 15.9617324561404  15.9675884955752 15.4248903508772  15.9675884955752 14.7631578947368  L 15.9675884955752 11.4004385964912  C 15.9675884955752 10.7405701754386  15.4259955752212 10.2018640350877  14.758407079646 10.2018640350877  Z " fill-rule="nonzero" fill="#aaaaaa" stroke="none" transform="matrix(1 0 0 1 808 58 )" />
  </g>
</svg>